<?xml version="1.0" encoding="iso-8859-1"?>
<!-- Generator: Adobe Illustrator 19.0.0, SVG Export Plug-In . SVG Version: 6.00 Build 0)  -->
<svg xmlns="http://www.w3.org/2000/svg" xmlns:xlink="http://www.w3.org/1999/xlink" version="1.1" id="Capa_1" x="0px" y="0px" viewBox="0 0 512 512" style="enable-background:new 0 0 512 512;" xml:space="preserve" width="512px" height="512px">
<g>
	<g>
		<path d="M256,22.393l-95.213,95.213L256,212.82l95.213-95.213L256,22.393z M256.52,146.607h-12.4v-13.12h12.4V146.607z     M266.84,117.967c-1.174,0.8-2.374,1.494-3.6,2.08c-1.228,0.587-2.36,1.174-3.4,1.76c-1.04,0.587-1.894,1.2-2.56,1.84    c-0.668,0.64-1,1.388-1,2.24h-12.4c0-1.12,0.053-2.226,0.16-3.32c0.106-1.092,0.373-2.132,0.8-3.12    c0.426-0.986,1.066-1.932,1.92-2.84c0.852-0.906,2-1.732,3.44-2.48c0.586-0.32,1.426-0.746,2.52-1.28    c1.092-0.533,2.186-1.173,3.28-1.92c1.093-0.746,2.04-1.586,2.84-2.52c0.8-0.932,1.2-1.96,1.2-3.08c0-1.227-0.48-2.2-1.44-2.92    c-0.96-0.72-2.08-1.08-3.359-1.08c-0.96,0-1.788,0.188-2.48,0.56c-0.694,0.374-1.294,0.828-1.8,1.36    c-0.507,0.534-0.934,1.08-1.28,1.64c-0.348,0.56-0.68,1.028-1,1.4l-9.68-6.88c1.386-3.252,3.573-5.786,6.56-7.6    c2.986-1.813,6.4-2.72,10.24-2.72c2.026,0,4.08,0.294,6.16,0.88c2.08,0.587,3.96,1.52,5.64,2.8c1.681,1.28,3.04,2.96,4.08,5.04    c1.04,2.08,1.561,4.614,1.561,7.6c0,2.56-0.468,4.894-1.4,7C270.906,114.514,269.24,116.366,266.84,117.967z" fill="#32c79d"/>
	</g>
</g>
<g>
	<g>
		<polygon points="117.28,254.047 112,273.087 122.32,273.087   " fill="#32c79d"/>
	</g>
</g>
<g>
	<g>
		<path d="M0,212.607v110h230v-110H0z M128.24,294.607l-3.44-11.12h-15.12l-3.36,11.12H89.76l21.2-56.8h12.64l21.12,56.8H128.24z" fill="#32c79d"/>
	</g>
</g>
<g>
	<g>
		<path d="M405.68,252.087c-0.748-0.666-1.628-1-2.641-1H391.92v8.72h10.64c1.067,0,2.041-0.293,2.92-0.88    c0.88-0.586,1.32-1.76,1.32-3.52C406.8,253.861,406.426,252.755,405.68,252.087z" fill="#32c79d"/>
	</g>
</g>
<g>
	<g>
		<path d="M407.68,273.367c-0.747-0.933-1.707-1.4-2.879-1.4h-12.88v9.52h12.319c1.28,0,2.36-0.4,3.24-1.2s1.32-1.946,1.32-3.44    C408.8,275.46,408.426,274.301,407.68,273.367z" fill="#32c79d"/>
	</g>
</g>
<g>
	<g>
		<path d="M277,212.607v110h235v-110H277z M423.04,286.647c-1.067,1.84-2.533,3.348-4.399,4.52c-1.868,1.174-4.04,2.04-6.521,2.6    c-2.479,0.56-5.107,0.84-7.88,0.84h-27.92v-56.8h32.96c1.973,0,3.76,0.427,5.36,1.28c1.6,0.854,2.96,1.96,4.08,3.32    s1.986,2.908,2.6,4.64c0.612,1.734,0.92,3.507,0.92,5.32c0,2.668-0.68,5.214-2.04,7.64c-1.359,2.428-3.399,4.254-6.12,5.48    c3.253,0.96,5.826,2.627,7.721,5c1.893,2.374,2.84,5.56,2.84,9.56C424.641,282.607,424.106,284.807,423.04,286.647z" fill="#32c79d"/>
	</g>
</g>
<g>
	<g>
		<path d="M0,389.607v100h110v-100H0z M72.465,454.607h-32.41v-11.9h9.94v-13.93c-0.42,0.56-1.074,1.109-1.96,1.645    c-0.887,0.537-1.879,1.039-2.975,1.505c-1.097,0.467-2.205,0.84-3.325,1.12c-1.12,0.28-2.124,0.42-3.01,0.42v-12.18    c0.653,0,1.563-0.245,2.73-0.735c1.166-0.49,2.333-1.073,3.5-1.75c1.166-0.676,2.228-1.4,3.185-2.17    c0.956-0.77,1.575-1.435,1.855-1.995h13.58v28.07h8.89V454.607z" fill="#32c79d"/>
	</g>
</g>
<g>
	<g>
		<path d="M120,389.607v100h110v-100H120z M193.13,454.607h-36.89c0-2.333,0.186-4.386,0.56-6.16c0.373-1.773,0.98-3.371,1.82-4.795    c0.84-1.423,1.925-2.695,3.255-3.815s2.975-2.216,4.935-3.29c2.52-1.353,4.515-2.438,5.985-3.255    c1.47-0.816,2.578-1.481,3.325-1.995c0.746-0.513,1.225-0.945,1.435-1.295c0.21-0.35,0.315-0.735,0.315-1.155    c0.001-1.166-0.373-2.03-1.12-2.59s-1.774-0.84-3.08-0.84c-1.54,0-2.999,0.397-4.375,1.19c-1.377,0.794-2.812,2.077-4.305,3.85    l-8.4-9.87c0.886-0.98,2.03-1.878,3.43-2.695c1.4-0.816,2.951-1.516,4.655-2.1c1.703-0.583,3.511-1.038,5.425-1.365    c1.913-0.326,3.873-0.49,5.88-0.49c5.366,0,9.438,1.109,12.215,3.325c2.776,2.217,4.165,5.309,4.165,9.275    c0,1.447-0.187,2.73-0.56,3.85c-0.374,1.12-0.875,2.135-1.505,3.045c-0.63,0.91-1.389,1.739-2.275,2.485    c-0.887,0.747-1.82,1.447-2.8,2.1c-1.167,0.794-2.392,1.552-3.675,2.275c-1.284,0.724-2.555,1.529-3.815,2.415h15.4V454.607z" fill="#32c79d"/>
	</g>
</g>
<g>
	<g>
		<rect x="40" y="342.61" width="30" height="27" fill="#32c79d"/>
	</g>
</g>
<g>
	<g>
		<rect x="160" y="342.61" width="30" height="27" fill="#32c79d"/>
	</g>
</g>
<g>
	<g>
		<rect x="322" y="342.61" width="30" height="27" fill="#32c79d"/>
	</g>
</g>
<g>
	<g>
		<rect x="442" y="342.61" width="30" height="27" fill="#32c79d"/>
	</g>
</g>
<g>
	<g>
		<path d="M282,389.607v100h110v-100H282z M354.465,454.607h-32.41v-11.9h9.94v-13.93c-0.42,0.56-1.074,1.109-1.96,1.645    c-0.887,0.537-1.879,1.039-2.975,1.505c-1.097,0.467-2.205,0.84-3.325,1.12c-1.12,0.28-2.124,0.42-3.01,0.42v-12.18    c0.653,0,1.563-0.245,2.73-0.735c1.166-0.49,2.333-1.073,3.5-1.75c1.166-0.676,2.228-1.4,3.185-2.17    c0.956-0.77,1.575-1.435,1.855-1.995h13.58v28.07h8.89V454.607z" fill="#32c79d"/>
	</g>
</g>
<g>
	<g>
		<path d="M402,389.607v100h110v-100H402z M475.13,454.607h-36.89c0-2.333,0.186-4.386,0.56-6.16c0.373-1.773,0.98-3.371,1.82-4.795    c0.84-1.423,1.925-2.695,3.255-3.815s2.975-2.216,4.935-3.29c2.52-1.353,4.515-2.438,5.985-3.255    c1.47-0.816,2.578-1.481,3.325-1.995c0.746-0.513,1.225-0.945,1.435-1.295c0.21-0.35,0.315-0.735,0.315-1.155    c0.001-1.166-0.373-2.03-1.12-2.59s-1.774-0.84-3.08-0.84c-1.54,0-2.999,0.397-4.375,1.19c-1.377,0.794-2.812,2.077-4.305,3.85    l-8.4-9.87c0.886-0.98,2.03-1.878,3.43-2.695c1.4-0.816,2.951-1.516,4.655-2.1c1.703-0.583,3.511-1.038,5.425-1.365    c1.913-0.326,3.873-0.49,5.88-0.49c5.366,0,9.438,1.109,12.215,3.325c2.776,2.217,4.165,5.309,4.165,9.275    c0,1.447-0.187,2.73-0.56,3.85c-0.374,1.12-0.875,2.135-1.505,3.045c-0.63,0.91-1.389,1.739-2.275,2.485    c-0.887,0.747-1.82,1.447-2.8,2.1c-1.167,0.794-2.392,1.552-3.675,2.275c-1.284,0.724-2.555,1.529-3.815,2.415h15.4V454.607z" fill="#32c79d"/>
	</g>
</g>
<g>
	<g>
		<polygon points="132.502,117.607 146.644,103.465 147.502,102.607 100,102.607 100,192.607 130,192.607 130,132.607     147.502,132.607 146.644,131.749   " fill="#32c79d"/>
	</g>
</g>
<g>
	<g>
		<polygon points="364.497,102.607 365.355,103.465 379.497,117.607 365.355,131.749 364.497,132.607 383,132.607 383,192.607     413,192.607 413,102.607   " fill="#32c79d"/>
	</g>
</g>
<g>
</g>
<g>
</g>
<g>
</g>
<g>
</g>
<g>
</g>
<g>
</g>
<g>
</g>
<g>
</g>
<g>
</g>
<g>
</g>
<g>
</g>
<g>
</g>
<g>
</g>
<g>
</g>
<g>
</g>
</svg>
