<?xml version="1.0" encoding="iso-8859-1"?>
<!-- Generator: Adobe Illustrator 19.0.0, SVG Export Plug-In . SVG Version: 6.00 Build 0)  -->
<svg version="1.1" id="Capa_1" xmlns="http://www.w3.org/2000/svg" xmlns:xlink="http://www.w3.org/1999/xlink" x="0px" y="0px"
	 viewBox="0 0 512 512" style="enable-background:new 0 0 512 512;" xml:space="preserve">
<path style="fill:#5C9CED;" d="M256,0v256L436.152,74.152C389.888,28.32,326.264,0,256,0z"/>
<path style="fill:#25B6D2;" d="M436.152,74.152L256,256h256C512,184.872,482.976,120.544,436.152,74.152z"/>
<path style="fill:#FB6E51;" d="M256,512V256l180.152,181.848C389.888,483.68,326.264,512,256,512z"/>
<path style="fill:#E04F5F;" d="M436.152,437.848L256,256h256C512,327.128,482.976,391.456,436.152,437.848z"/>
<path style="fill:#25B6D2;" d="M256,0v256L75.848,74.152C122.112,28.32,185.736,0,256,0z"/>
<path style="fill:#47CEAC;" d="M75.848,74.152L256,256H0C0,184.872,29.024,120.544,75.848,74.152z"/>
<path style="fill:#FECD54;" d="M256,512V256L75.848,437.848C122.112,483.68,185.736,512,256,512z"/>
<path style="fill:#32BEA6;" d="M75.848,437.848L256,256H0C0,327.128,29.024,391.456,75.848,437.848z"/>
<g>
</g>
<g>
</g>
<g>
</g>
<g>
</g>
<g>
</g>
<g>
</g>
<g>
</g>
<g>
</g>
<g>
</g>
<g>
</g>
<g>
</g>
<g>
</g>
<g>
</g>
<g>
</g>
<g>
</g>
</svg>
